<svg xmlns="http://www.w3.org/2000/svg" version="1.1" xmlns:xlink="http://www.w3.org/1999/xlink" xmlns:svgjs="http://svgjs.com/svgjs" width="1440" height="560" preserveAspectRatio="none" viewBox="0 0 1440 560"><g mask="url(&quot;#SvgjsMask1020&quot;)" fill="none"><rect width="1440" height="560" x="0" y="0" fill="url(#SvgjsLinearGradient1021)"></rect><path d="M1440 0L828.65 0L1440 55.35z" fill="rgba(255, 255, 255, .1)"></path><path d="M828.65 0L1440 55.35L1440 315.13L632.9399999999999 0z" fill="rgba(255, 255, 255, .075)"></path><path d="M632.9399999999999 0L1440 315.13L1440 329.96999999999997L305.47999999999996 0z" fill="rgba(255, 255, 255, .05)"></path><path d="M305.48 0L1440 329.96999999999997L1440 331.52L263.72 0z" fill="rgba(255, 255, 255, .025)"></path><path d="M0 560L328.9 560L0 441.40999999999997z" fill="rgba(0, 0, 0, .1)"></path><path d="M0 441.40999999999997L328.9 560L598.63 560L0 433.89z" fill="rgba(0, 0, 0, .075)"></path><path d="M0 433.89L598.63 560L794.84 560L0 199.86999999999998z" fill="rgba(0, 0, 0, .05)"></path><path d="M0 199.87L794.84 560L1023.3100000000001 560L0 97.65z" fill="rgba(0, 0, 0, .025)"></path></g><defs><mask id="SvgjsMask1020"><rect width="1440" height="560" fill="#ffffff"></rect></mask><linearGradient x1="50%" y1="100%" x2="50%" y2="0%" gradientUnits="userSpaceOnUse" id="SvgjsLinearGradient1021"><stop stop-color="#0e2a47" offset="0"></stop><stop stop-color="rgba(47, 79, 79, 1)" offset="1"></stop></linearGradient></defs></svg>